<?xml version="1.0" standalone="no"?>
<!DOCTYPE svg PUBLIC "-//W3C//DTD SVG 20010904//EN"
 "http://www.w3.org/TR/2001/REC-SVG-20010904/DTD/svg10.dtd">
<svg version="1.0" xmlns="http://www.w3.org/2000/svg"
 width="156.000000pt" height="141.000000pt" viewBox="0 0 156.000000 141.000000"
 preserveAspectRatio="xMidYMid meet">

<g transform="translate(0.000000,141.000000) scale(0.100000,-0.100000)"
fill="#000000" stroke="none">
<path d="M738 1391 c-56 -18 -89 -46 -115 -99 -30 -62 -27 -115 12 -173 27
-42 96 -79 145 -79 83 0 162 71 176 157 18 113 -111 227 -218 194z"/>
<path d="M102 1029 c-47 -24 -73 -55 -92 -112 -15 -49 -10 -72 48 -186 l47
-93 0 -113 0 -112 -46 -89 c-56 -109 -63 -133 -48 -187 22 -81 122 -148 196
-131 57 13 111 53 132 97 32 65 27 98 -31 213 -46 92 -52 112 -56 182 -3 56 1
96 12 137 l17 58 45 -7 c105 -14 217 -102 295 -233 58 -97 144 -126 237 -81
34 16 53 35 81 81 78 131 190 219 295 233 l45 7 17 -58 c11 -41 15 -81 12
-137 -4 -70 -10 -89 -56 -181 -33 -64 -52 -115 -52 -136 0 -108 117 -199 220
-171 71 19 121 75 135 154 7 33 1 51 -46 144 l-54 107 0 111 0 112 50 97 c56
110 62 154 31 218 -40 81 -153 120 -232 79 -47 -24 -59 -38 -107 -118 -99
-166 -264 -234 -505 -207 -152 17 -254 81 -329 207 -47 79 -61 94 -105 117
-49 25 -103 24 -156 -2z"/>
</g>
</svg>
