<svg xmlns="http://www.w3.org/2000/svg" width="200" height="121.78"><path d="M94.2 86.98l-9.06 23.18h3.94l.96-2.45h6.4l.63 2.46h13l-9.7-23.18zm-.53 11.33l1.7 5.92h-3.94z"/><path d="M67.46 87H84.5v3.57h-4.9v5.8h4.9v3.46h-4.9v10.33H67.47z"/><path d="M110.92 87h8.3l9.7 9.06V87.3h3.62v22.86h-6.82l-11.18-10.5v10.5h-3.62z"/><path fill="#919396" d="M108.73 112.9v1.9h4.48v-1.9h-4.47zm-37.06 2.03c-1.28 0-2.13.18-2.88.7-.86.6-1.3 1.44-1.3 2.57 0 1.12.44 1.96 1.3 2.56.74.52 1.6.7 2.87.7h.85v-1.22h-.74c-.33-.08-.43-.3-.43-.5v-3.1c0-.2.1-.4.43-.5h.8l.13-1.2h-1.03zm8.3.02c-1.17 0-2.13.32-2.98.92-.86.6-1.3 1.4-1.3 2.43 0 .9.44 1.75 1.3 2.46.84.63 1.8.9 2.98.9h.09c1.18 0 2.14-.27 3-.9.85-.7 1.27-1.55 1.27-2.46 0-1.02-.42-1.83-1.28-2.43-.85-.6-1.8-.92-3-.92H80zm39.95 0c-.96 0-1.92.32-2.66.92-.86.6-1.18 1.4-1.18 2.43 0 1.33.53 2.35 1.8 2.85.66.3 1.5.52 2.46.52 1.14-.03 2.1-.2 2.98-.4v-1.32c-.64.1-.9.2-1.6.2-1.37.03-1.53-.57-1.5-1.33h3.2c0-.7-.1-1.23-.2-1.65-.1-.5-.43-1.02-.85-1.4-1.2-.86-1.7-.72-2.45-.82zm-32.8.18v4.3c0 .73.2 1.33.74 1.72.53.42 1.16.63 2.02.63.85 0 1.7-.2 2.45-.63v.3h4.48v-6.32h-4.47v4.2c0 .2 0 .3-.1.4-.1.1-.22.1-.44.1-.32 0-.53-.1-.53-.5v-4.2H87.1zm12.45 0v6.33h4.58v-3.55c0-.52.1-.83.53-1.12.32-.2.75-.3 1.28-.3v-1.35c-.74 0-1.38.2-1.8.42v-.42h-4.6zm9.16 0v6.33h4.48v-6.33h-4.47zm17.47 0v6.33h4.48v-3.55c0-.52.2-.83.53-1.12.32-.2.76-.3 1.28-.3v-1.35c-.63 0-1.27.2-1.8.42v-.42h-4.48zm-5.32 1.23c.5.03.58.68.74 1.13h-1.4c.12-.72.34-1.14.66-1.14zm-40.9.1h.1c.32 0 .53.22.53.53v2.84c0 .32-.2.5-.53.5h-.1c-.3 0-.53-.18-.53-.5V117c0-.32.22-.53.54-.53z"/><path fill="#0f2345" d="M64 18.55V64.1l14.44 7.48 2.98-1.4V23.6l16.45-2.8V19.1l-19.43 3.3L64 18.54z"/><path fill="#0f2345" d="M85.78 24.72v50.1l14.43 7.48 3-1.67v-50.9l15.55-4.46V23.6l-18.54 4.97z"/><path fill="#0f2345" d="M85.46 15.57v1.2l12.4 2.33v1.67l3.07-.63v-1.6zm18.46 3.3v48.42l17.9 4.17V22.24z"/><path fill="#0f2345" d="M0 0l.8 12.43 28.06 13.3c-9.27-3.65-16.28-6.48-21.2-8.46l.24 5.04 1.53.8C21.13 29.2 30.3 33.77 37 36.9l-21.2-9.38.24 5.7 1.86.87 1.77.95c.8.4 1.6.74 2.42 1.13l28.36 14.2-27-12.5.24 5.6L60.95 62.5h.08V17.97h.15L0 0zm64 18.55V64.1l14.44 7.45V22.4L64 18.54zm17.42 5.05v49.08l18.8 9.62V28.57L81.4 23.6z"/><path fill="#0f2345" d="M122.05 15.72h.16l17.27 2.1v44.52l-2.98-1.2-14.6-1.9V15.8z"/><path fill="#0f2345" d="M103.92 18.86l3.47 45.08 14.42 7.53 2.98-1.85v-46.2l11.7-3.38v-1.67l-14.68 3.87z"/><path fill="#0f2345" d="M85.46 15.57v9.94l15.48 7.23 2.98-1.4 12.73-2.16v-13.3l-15.72 2.68z"/><path fill="#0f2345" d="M122.2 15.72l2.66 39.14 14.6 7.48 2.8-1.73.02-41.6-3-1.18z"/><path fill="#475f9a" d="M200 0l-60.53 17.82v44.52l37.06-19.17.24-5.55-26.9 12.53 28.36-14.2c.74-.4 1.44-.74 2.25-1.13.58-.3 1.2-.65 1.86-.9l1.86-.96.3-5.67c-3.68 1.58-10.7 4.8-21.18 9.43 6.62-3.1 15.8-7.77 27.58-13.86l1.43-.8.35-5.14c-4.95 2.1-11.93 4.9-21.22 8.66l27.96-13.5zm-63.5 18.37l-14.68 3.87v49.23l14.67-7.6v-2.73zm-17.75 5.2l-18.54 5V82.3l18.55-9.52z"/><path fill="#475f9a" d="M116.65 15.88l-15.72 2.67v1.6l3 .62v-1.9l12.72-2.1v-.9zM97.87 19.1l-19.43 3.3v49.18l2.98-1.4V23.6l16.45-2.8V19.1z"/><path fill="#0f2345" d="M46.6 14.13v40.9l14.43 7.47L64 61.1V19.16l16.06-1.83v-1.68l-19.03 2.33z"/><path fill="#475f9a" d="M79.97 15.64h.1v.9l-16.06 2v42.83l-2.97 1.13V17.97h.16z"/><path fill="#bad2ed" d="M0 0l61.2 17.97 18.77-2.33zm200 0l-78.12 15.72h.16l17.43 2.1zm-99.8 13.8l-14.74 1.77 15.47 2.98 15.72-2.67-16.36-2.07zm-17.73 2.42l-2.4.3L64 18.56l14.42 3.84 19.43-3.3-12.4-2.33zm37.1 0l-2.92.55-12.73 2.1 17.9 3.37 14.67-3.87-14.6-1.9zm-18.64 3.92l-3.06.63-16.45 2.83 18.8 4.97 18.53-4.97-14.83-2.83z"/></svg>